G75*
G70*
%OFA0B0*%
%FSLAX24Y24*%
%IPPOS*%
%LPD*%
%AMOC8*
5,1,8,0,0,1.08239X$1,22.5*
%
%ADD10C,0.0100*%
%ADD11C,0.0040*%
%ADD12C,0.0030*%
%ADD13C,0.0080*%
%ADD14C,0.0050*%
%ADD15C,0.0000*%
%ADD16R,0.0118X0.0059*%
%ADD17R,0.0118X0.0118*%
%ADD18C,0.0059*%
D10*
X000175Y000150D02*
X015175Y000150D01*
X015175Y012650D01*
X000175Y012650D01*
X000175Y000150D01*
D11*
X006769Y008149D02*
X006769Y008456D01*
X006999Y008610D02*
X006999Y008917D01*
X006846Y008763D02*
X007153Y008763D01*
X007229Y008303D02*
X006769Y008303D01*
X009328Y008303D02*
X009788Y008303D01*
X009558Y008610D02*
X009558Y008917D01*
X009328Y008456D02*
X009328Y008149D01*
X007262Y011317D02*
X007262Y011777D01*
X007492Y011777D01*
X007569Y011700D01*
X007569Y011547D01*
X007492Y011470D01*
X007262Y011470D01*
X007108Y011470D02*
X007108Y011777D01*
X006801Y011777D02*
X006801Y011547D01*
X006878Y011470D01*
X007108Y011470D01*
X006648Y011547D02*
X006648Y011700D01*
X006571Y011777D01*
X006418Y011777D01*
X006341Y011700D01*
X006341Y011547D01*
X006418Y011470D01*
X006571Y011470D01*
X006648Y011547D01*
X006188Y011470D02*
X005957Y011470D01*
X005881Y011547D01*
X005881Y011700D01*
X005957Y011777D01*
X006188Y011777D01*
X005727Y011700D02*
X005727Y011547D01*
X005650Y011470D01*
X005497Y011470D01*
X005420Y011547D01*
X005420Y011700D01*
X005497Y011777D01*
X005650Y011777D01*
X005727Y011700D01*
X005267Y011700D02*
X005267Y011470D01*
X005113Y011470D02*
X005113Y011700D01*
X005190Y011777D01*
X005267Y011700D01*
X005113Y011700D02*
X005037Y011777D01*
X004960Y011777D01*
X004960Y011470D01*
X004806Y011777D02*
X004730Y011777D01*
X004576Y011623D01*
X004576Y011470D02*
X004576Y011777D01*
X004423Y011700D02*
X004423Y011623D01*
X004116Y011623D01*
X004116Y011547D02*
X004116Y011700D01*
X004193Y011777D01*
X004346Y011777D01*
X004423Y011700D01*
X004346Y011470D02*
X004193Y011470D01*
X004116Y011547D01*
X003962Y011470D02*
X003962Y011700D01*
X003886Y011777D01*
X003732Y011777D01*
X003655Y011700D01*
X003655Y011930D02*
X003655Y011470D01*
X003348Y011470D02*
X003348Y011930D01*
X003195Y011930D02*
X003502Y011930D01*
X007722Y011930D02*
X007799Y011930D01*
X007799Y011470D01*
X007722Y011470D02*
X007876Y011470D01*
X008029Y011547D02*
X008029Y011700D01*
X008106Y011777D01*
X008259Y011777D01*
X008336Y011700D01*
X008336Y011623D01*
X008029Y011623D01*
X008029Y011547D02*
X008106Y011470D01*
X008259Y011470D01*
X008950Y011470D02*
X009103Y011470D01*
X009027Y011470D02*
X009027Y011930D01*
X009103Y011930D02*
X008950Y011930D01*
X009257Y011777D02*
X009487Y011777D01*
X009564Y011700D01*
X009564Y011470D01*
X009794Y011547D02*
X009871Y011470D01*
X009794Y011547D02*
X009794Y011854D01*
X009717Y011777D02*
X009871Y011777D01*
X010024Y011700D02*
X010101Y011777D01*
X010254Y011777D01*
X010331Y011700D01*
X010331Y011623D01*
X010024Y011623D01*
X010024Y011547D02*
X010024Y011700D01*
X010024Y011547D02*
X010101Y011470D01*
X010254Y011470D01*
X010485Y011470D02*
X010485Y011777D01*
X010638Y011777D02*
X010715Y011777D01*
X010638Y011777D02*
X010485Y011623D01*
X010868Y011700D02*
X011022Y011700D01*
X010945Y011854D02*
X011022Y011930D01*
X010945Y011854D02*
X010945Y011470D01*
X011175Y011547D02*
X011252Y011623D01*
X011482Y011623D01*
X011482Y011700D02*
X011482Y011470D01*
X011252Y011470D01*
X011175Y011547D01*
X011252Y011777D02*
X011405Y011777D01*
X011482Y011700D01*
X011636Y011700D02*
X011636Y011547D01*
X011712Y011470D01*
X011942Y011470D01*
X012096Y011547D02*
X012096Y011700D01*
X012173Y011777D01*
X012326Y011777D01*
X012403Y011700D01*
X012403Y011623D01*
X012096Y011623D01*
X012096Y011547D02*
X012173Y011470D01*
X012326Y011470D01*
X011942Y011777D02*
X011712Y011777D01*
X011636Y011700D01*
X009257Y011777D02*
X009257Y011470D01*
X013195Y009054D02*
X013195Y008747D01*
X013272Y008670D01*
X013425Y008670D01*
X013502Y008747D01*
X013655Y008747D02*
X013732Y008670D01*
X013886Y008670D01*
X013962Y008747D01*
X013962Y008823D01*
X013886Y008900D01*
X013732Y008900D01*
X013655Y008977D01*
X013655Y009054D01*
X013732Y009130D01*
X013886Y009130D01*
X013962Y009054D01*
X013502Y009054D02*
X013425Y009130D01*
X013272Y009130D01*
X013195Y009054D01*
X013272Y008130D02*
X013195Y008054D01*
X013195Y007977D01*
X013272Y007900D01*
X013425Y007900D01*
X013502Y007823D01*
X013502Y007747D01*
X013425Y007670D01*
X013272Y007670D01*
X013195Y007747D01*
X013502Y008054D02*
X013425Y008130D01*
X013272Y008130D01*
X013655Y008054D02*
X013655Y007747D01*
X013732Y007670D01*
X013886Y007670D01*
X013962Y007747D01*
X013962Y008054D01*
X013886Y008130D01*
X013732Y008130D01*
X013655Y008054D01*
X013732Y007130D02*
X013655Y007054D01*
X013655Y006747D01*
X013732Y006670D01*
X013886Y006670D01*
X013962Y006747D01*
X014116Y006823D02*
X014423Y007130D01*
X014116Y007130D02*
X014116Y006670D01*
X014193Y006900D02*
X014423Y006670D01*
X013962Y007054D02*
X013886Y007130D01*
X013732Y007130D01*
X013502Y007054D02*
X013425Y007130D01*
X013272Y007130D01*
X013195Y007054D01*
X013195Y006977D01*
X013272Y006900D01*
X013425Y006900D01*
X013502Y006823D01*
X013502Y006747D01*
X013425Y006670D01*
X013272Y006670D01*
X013195Y006747D01*
X013195Y006130D02*
X013195Y005670D01*
X013502Y005670D01*
X013655Y005670D02*
X013962Y005670D01*
X014116Y005670D02*
X014346Y005670D01*
X014423Y005747D01*
X014423Y006054D01*
X014346Y006130D01*
X014116Y006130D01*
X014116Y005670D01*
X013809Y005900D02*
X013655Y005900D01*
X013655Y006130D02*
X013655Y005670D01*
X013655Y006130D02*
X013962Y006130D01*
X014576Y005977D02*
X014730Y006130D01*
X014730Y005670D01*
X014883Y005670D02*
X014576Y005670D01*
X014653Y005130D02*
X014653Y004823D01*
X014499Y004670D01*
X014346Y004823D01*
X014346Y005130D01*
X014193Y005054D02*
X014193Y004977D01*
X014116Y004900D01*
X014193Y004823D01*
X014193Y004747D01*
X014116Y004670D01*
X013962Y004670D01*
X013886Y004747D01*
X013732Y004747D02*
X013732Y004670D01*
X013655Y004670D01*
X013655Y004747D01*
X013732Y004747D01*
X013502Y004747D02*
X013425Y004670D01*
X013272Y004670D01*
X013195Y004747D01*
X013348Y004900D02*
X013425Y004900D01*
X013502Y004823D01*
X013502Y004747D01*
X013425Y004900D02*
X013502Y004977D01*
X013502Y005054D01*
X013425Y005130D01*
X013272Y005130D01*
X013195Y005054D01*
X013886Y005054D02*
X013962Y005130D01*
X014116Y005130D01*
X014193Y005054D01*
X014116Y004900D02*
X014039Y004900D01*
X013962Y004130D02*
X013962Y003670D01*
X013655Y004130D01*
X013655Y003670D01*
X013502Y003747D02*
X013502Y003900D01*
X013348Y003900D01*
X013195Y003747D02*
X013272Y003670D01*
X013425Y003670D01*
X013502Y003747D01*
X013502Y004054D02*
X013425Y004130D01*
X013272Y004130D01*
X013195Y004054D01*
X013195Y003747D01*
X014116Y003670D02*
X014346Y003670D01*
X014423Y003747D01*
X014423Y004054D01*
X014346Y004130D01*
X014116Y004130D01*
X014116Y003670D01*
D12*
X009910Y003605D02*
X009910Y003482D01*
X009848Y003420D01*
X009910Y003299D02*
X009540Y003052D01*
X009663Y002930D02*
X009910Y002930D01*
X009910Y003052D02*
X009540Y003299D01*
X009601Y003420D02*
X009540Y003482D01*
X009540Y003605D01*
X009601Y003667D01*
X009663Y003667D01*
X009725Y003605D01*
X009787Y003667D01*
X009848Y003667D01*
X009910Y003605D01*
X009910Y003788D02*
X009910Y004035D01*
X009910Y003912D02*
X009540Y003912D01*
X009663Y003788D01*
X009725Y003605D02*
X009725Y003543D01*
X009725Y002930D02*
X009725Y002683D01*
X009663Y002683D02*
X009540Y002807D01*
X009663Y002930D01*
X009663Y002683D02*
X009910Y002683D01*
X009910Y002562D02*
X009540Y002562D01*
X009663Y002438D01*
X009540Y002315D01*
X009910Y002315D01*
X009848Y004157D02*
X009787Y004157D01*
X009725Y004218D01*
X009725Y004342D01*
X009787Y004403D01*
X009848Y004403D01*
X009910Y004342D01*
X009910Y004218D01*
X009848Y004157D01*
X009725Y004218D02*
X009663Y004157D01*
X009601Y004157D01*
X009540Y004218D01*
X009540Y004342D01*
X009601Y004403D01*
X009663Y004403D01*
X009725Y004342D01*
X009725Y004525D02*
X009540Y004525D01*
X009540Y004772D01*
X009540Y004893D02*
X009725Y004893D01*
X009663Y005017D01*
X009663Y005078D01*
X009725Y005140D01*
X009848Y005140D01*
X009910Y005078D01*
X009910Y004955D01*
X009848Y004893D01*
X009848Y004772D02*
X009725Y004772D01*
X009663Y004710D01*
X009663Y004648D01*
X009725Y004525D01*
X009848Y004525D02*
X009910Y004587D01*
X009910Y004710D01*
X009848Y004772D01*
X009540Y004893D02*
X009540Y005140D01*
X006578Y004465D02*
X006385Y004465D01*
X006481Y004465D02*
X006481Y004755D01*
X006385Y004658D01*
X006283Y004610D02*
X006235Y004562D01*
X006090Y004562D01*
X006187Y004562D02*
X006283Y004465D01*
X006090Y004465D02*
X006090Y004755D01*
X006235Y004755D01*
X006283Y004707D01*
X006283Y004610D01*
X006235Y003755D02*
X006090Y003755D01*
X006090Y003465D01*
X006090Y003562D02*
X006235Y003562D01*
X006283Y003610D01*
X006283Y003707D01*
X006235Y003755D01*
X006385Y003707D02*
X006433Y003755D01*
X006530Y003755D01*
X006578Y003707D01*
X006578Y003658D01*
X006385Y003465D01*
X006578Y003465D01*
X006283Y003465D02*
X006187Y003562D01*
X006185Y002755D02*
X006088Y002755D01*
X006040Y002707D01*
X006040Y002513D01*
X006088Y002465D01*
X006185Y002465D01*
X006233Y002513D01*
X006335Y002465D02*
X006528Y002465D01*
X006431Y002465D02*
X006431Y002755D01*
X006335Y002658D01*
X006233Y002707D02*
X006185Y002755D01*
X003033Y004627D02*
X002971Y004565D01*
X002786Y004565D01*
X002665Y004565D02*
X002665Y004812D01*
X002786Y004750D02*
X002848Y004688D01*
X002971Y004688D01*
X003033Y004627D01*
X003033Y004812D02*
X002848Y004812D01*
X002786Y004750D01*
X002665Y004565D02*
X002479Y004565D01*
X002418Y004627D01*
X002418Y004812D01*
X002296Y004812D02*
X002172Y004812D01*
X002234Y004874D02*
X002234Y004627D01*
X002296Y004565D01*
X002051Y004565D02*
X001866Y004565D01*
X001804Y004627D01*
X001866Y004688D01*
X002051Y004688D01*
X002051Y004750D02*
X001989Y004812D01*
X001866Y004812D01*
X002051Y004750D02*
X002051Y004565D01*
X001682Y004565D02*
X001620Y004627D01*
X001620Y004874D01*
X001558Y004812D02*
X001682Y004812D01*
X001437Y004874D02*
X001375Y004935D01*
X001252Y004935D01*
X001190Y004874D01*
X001190Y004812D01*
X001252Y004750D01*
X001375Y004750D01*
X001437Y004688D01*
X001437Y004627D01*
X001375Y004565D01*
X001252Y004565D01*
X001190Y004627D01*
X001190Y003835D02*
X001375Y003835D01*
X001437Y003774D01*
X001437Y003650D01*
X001375Y003588D01*
X001190Y003588D01*
X001190Y003465D02*
X001190Y003835D01*
X001558Y003650D02*
X001558Y003527D01*
X001620Y003465D01*
X001743Y003465D01*
X001805Y003527D01*
X001805Y003650D01*
X001743Y003712D01*
X001620Y003712D01*
X001558Y003650D01*
X001927Y003712D02*
X001927Y003527D01*
X001988Y003465D01*
X002050Y003527D01*
X002112Y003465D01*
X002174Y003527D01*
X002174Y003712D01*
X002295Y003650D02*
X002357Y003712D01*
X002480Y003712D01*
X002542Y003650D01*
X002542Y003588D01*
X002295Y003588D01*
X002295Y003527D02*
X002295Y003650D01*
X002295Y003527D02*
X002357Y003465D01*
X002480Y003465D01*
X002663Y003465D02*
X002663Y003712D01*
X002663Y003588D02*
X002787Y003712D01*
X002848Y003712D01*
X005813Y010665D02*
X005937Y010788D01*
X005937Y011035D01*
X006058Y010912D02*
X006182Y011035D01*
X006182Y010665D01*
X006305Y010665D02*
X006058Y010665D01*
X005813Y010665D02*
X005690Y010788D01*
X005690Y011035D01*
X006427Y010727D02*
X006488Y010727D01*
X006488Y010665D01*
X006427Y010665D01*
X006427Y010727D01*
X006611Y010727D02*
X006673Y010665D01*
X006796Y010665D01*
X006858Y010727D01*
X006858Y010788D01*
X006796Y010850D01*
X006734Y010850D01*
X006796Y010850D02*
X006858Y010912D01*
X006858Y010974D01*
X006796Y011035D01*
X006673Y011035D01*
X006611Y010974D01*
X007347Y010974D02*
X007347Y010727D01*
X007594Y010974D01*
X007594Y010727D01*
X007533Y010665D01*
X007409Y010665D01*
X007347Y010727D01*
X007347Y010974D02*
X007409Y011035D01*
X007533Y011035D01*
X007594Y010974D01*
X007716Y010912D02*
X007839Y011035D01*
X007839Y010665D01*
X007716Y010665D02*
X007963Y010665D01*
X008084Y010850D02*
X008331Y010850D01*
X008452Y010974D02*
X008514Y011035D01*
X008638Y011035D01*
X008699Y010974D01*
X008699Y010912D01*
X008452Y010665D01*
X008699Y010665D01*
X008821Y010727D02*
X009068Y010974D01*
X009068Y010727D01*
X009006Y010665D01*
X008882Y010665D01*
X008821Y010727D01*
X008821Y010974D01*
X008882Y011035D01*
X009006Y011035D01*
X009068Y010974D01*
X009189Y010912D02*
X009312Y011035D01*
X009312Y010665D01*
X009189Y010665D02*
X009436Y010665D01*
X009557Y010665D02*
X009804Y010912D01*
X009804Y010974D01*
X009742Y011035D01*
X009619Y011035D01*
X009557Y010974D01*
X009557Y010665D02*
X009804Y010665D01*
D13*
X011925Y009150D02*
X011925Y008650D01*
X012175Y008400D01*
X011925Y008150D01*
X011925Y007650D01*
X012175Y007400D01*
X011925Y007150D01*
X011925Y006650D01*
X012175Y006400D01*
X011925Y006150D01*
X011925Y005650D01*
X012175Y005400D01*
X011925Y005150D01*
X011925Y004650D01*
X012175Y004400D01*
X011925Y004150D01*
X011925Y003650D01*
X012175Y003400D01*
X012675Y003400D01*
X012925Y003650D01*
X012925Y004150D01*
X012675Y004400D01*
X012925Y004650D01*
X012925Y005150D01*
X012675Y005400D01*
X012925Y005650D01*
X012925Y006150D01*
X012675Y006400D01*
X012925Y006650D01*
X012925Y007150D01*
X012675Y007400D01*
X012925Y007650D01*
X012925Y008150D01*
X012675Y008400D01*
X012925Y008650D01*
X012925Y009150D01*
X012675Y009400D01*
X012175Y009400D01*
X011925Y009150D01*
X009275Y004400D02*
X009275Y003100D01*
X008925Y004250D02*
X008927Y004270D01*
X008933Y004288D01*
X008942Y004306D01*
X008954Y004321D01*
X008969Y004333D01*
X008987Y004342D01*
X009005Y004348D01*
X009025Y004350D01*
X009045Y004348D01*
X009063Y004342D01*
X009081Y004333D01*
X009096Y004321D01*
X009108Y004306D01*
X009117Y004288D01*
X009123Y004270D01*
X009125Y004250D01*
X009123Y004230D01*
X009117Y004212D01*
X009108Y004194D01*
X009096Y004179D01*
X009081Y004167D01*
X009063Y004158D01*
X009045Y004152D01*
X009025Y004150D01*
X009005Y004152D01*
X008987Y004158D01*
X008969Y004167D01*
X008954Y004179D01*
X008942Y004194D01*
X008933Y004212D01*
X008927Y004230D01*
X008925Y004250D01*
X007275Y004400D02*
X007275Y003100D01*
D14*
X006225Y006430D02*
X003825Y006430D01*
X003825Y009130D02*
X006525Y009130D01*
D15*
X001025Y011150D02*
X001027Y011200D01*
X001033Y011250D01*
X001043Y011300D01*
X001056Y011348D01*
X001073Y011396D01*
X001094Y011442D01*
X001118Y011486D01*
X001146Y011528D01*
X001177Y011568D01*
X001211Y011605D01*
X001248Y011640D01*
X001287Y011671D01*
X001328Y011700D01*
X001372Y011725D01*
X001418Y011747D01*
X001465Y011765D01*
X001513Y011779D01*
X001562Y011790D01*
X001612Y011797D01*
X001662Y011800D01*
X001713Y011799D01*
X001763Y011794D01*
X001813Y011785D01*
X001861Y011773D01*
X001909Y011756D01*
X001955Y011736D01*
X002000Y011713D01*
X002043Y011686D01*
X002083Y011656D01*
X002121Y011623D01*
X002156Y011587D01*
X002189Y011548D01*
X002218Y011507D01*
X002244Y011464D01*
X002267Y011419D01*
X002286Y011372D01*
X002301Y011324D01*
X002313Y011275D01*
X002321Y011225D01*
X002325Y011175D01*
X002325Y011125D01*
X002321Y011075D01*
X002313Y011025D01*
X002301Y010976D01*
X002286Y010928D01*
X002267Y010881D01*
X002244Y010836D01*
X002218Y010793D01*
X002189Y010752D01*
X002156Y010713D01*
X002121Y010677D01*
X002083Y010644D01*
X002043Y010614D01*
X002000Y010587D01*
X001955Y010564D01*
X001909Y010544D01*
X001861Y010527D01*
X001813Y010515D01*
X001763Y010506D01*
X001713Y010501D01*
X001662Y010500D01*
X001612Y010503D01*
X001562Y010510D01*
X001513Y010521D01*
X001465Y010535D01*
X001418Y010553D01*
X001372Y010575D01*
X001328Y010600D01*
X001287Y010629D01*
X001248Y010660D01*
X001211Y010695D01*
X001177Y010732D01*
X001146Y010772D01*
X001118Y010814D01*
X001094Y010858D01*
X001073Y010904D01*
X001056Y010952D01*
X001043Y011000D01*
X001033Y011050D01*
X001027Y011100D01*
X001025Y011150D01*
X001025Y001650D02*
X001027Y001700D01*
X001033Y001750D01*
X001043Y001800D01*
X001056Y001848D01*
X001073Y001896D01*
X001094Y001942D01*
X001118Y001986D01*
X001146Y002028D01*
X001177Y002068D01*
X001211Y002105D01*
X001248Y002140D01*
X001287Y002171D01*
X001328Y002200D01*
X001372Y002225D01*
X001418Y002247D01*
X001465Y002265D01*
X001513Y002279D01*
X001562Y002290D01*
X001612Y002297D01*
X001662Y002300D01*
X001713Y002299D01*
X001763Y002294D01*
X001813Y002285D01*
X001861Y002273D01*
X001909Y002256D01*
X001955Y002236D01*
X002000Y002213D01*
X002043Y002186D01*
X002083Y002156D01*
X002121Y002123D01*
X002156Y002087D01*
X002189Y002048D01*
X002218Y002007D01*
X002244Y001964D01*
X002267Y001919D01*
X002286Y001872D01*
X002301Y001824D01*
X002313Y001775D01*
X002321Y001725D01*
X002325Y001675D01*
X002325Y001625D01*
X002321Y001575D01*
X002313Y001525D01*
X002301Y001476D01*
X002286Y001428D01*
X002267Y001381D01*
X002244Y001336D01*
X002218Y001293D01*
X002189Y001252D01*
X002156Y001213D01*
X002121Y001177D01*
X002083Y001144D01*
X002043Y001114D01*
X002000Y001087D01*
X001955Y001064D01*
X001909Y001044D01*
X001861Y001027D01*
X001813Y001015D01*
X001763Y001006D01*
X001713Y001001D01*
X001662Y001000D01*
X001612Y001003D01*
X001562Y001010D01*
X001513Y001021D01*
X001465Y001035D01*
X001418Y001053D01*
X001372Y001075D01*
X001328Y001100D01*
X001287Y001129D01*
X001248Y001160D01*
X001211Y001195D01*
X001177Y001232D01*
X001146Y001272D01*
X001118Y001314D01*
X001094Y001358D01*
X001073Y001404D01*
X001056Y001452D01*
X001043Y001500D01*
X001033Y001550D01*
X001027Y001600D01*
X001025Y001650D01*
X013025Y001650D02*
X013027Y001700D01*
X013033Y001750D01*
X013043Y001800D01*
X013056Y001848D01*
X013073Y001896D01*
X013094Y001942D01*
X013118Y001986D01*
X013146Y002028D01*
X013177Y002068D01*
X013211Y002105D01*
X013248Y002140D01*
X013287Y002171D01*
X013328Y002200D01*
X013372Y002225D01*
X013418Y002247D01*
X013465Y002265D01*
X013513Y002279D01*
X013562Y002290D01*
X013612Y002297D01*
X013662Y002300D01*
X013713Y002299D01*
X013763Y002294D01*
X013813Y002285D01*
X013861Y002273D01*
X013909Y002256D01*
X013955Y002236D01*
X014000Y002213D01*
X014043Y002186D01*
X014083Y002156D01*
X014121Y002123D01*
X014156Y002087D01*
X014189Y002048D01*
X014218Y002007D01*
X014244Y001964D01*
X014267Y001919D01*
X014286Y001872D01*
X014301Y001824D01*
X014313Y001775D01*
X014321Y001725D01*
X014325Y001675D01*
X014325Y001625D01*
X014321Y001575D01*
X014313Y001525D01*
X014301Y001476D01*
X014286Y001428D01*
X014267Y001381D01*
X014244Y001336D01*
X014218Y001293D01*
X014189Y001252D01*
X014156Y001213D01*
X014121Y001177D01*
X014083Y001144D01*
X014043Y001114D01*
X014000Y001087D01*
X013955Y001064D01*
X013909Y001044D01*
X013861Y001027D01*
X013813Y001015D01*
X013763Y001006D01*
X013713Y001001D01*
X013662Y001000D01*
X013612Y001003D01*
X013562Y001010D01*
X013513Y001021D01*
X013465Y001035D01*
X013418Y001053D01*
X013372Y001075D01*
X013328Y001100D01*
X013287Y001129D01*
X013248Y001160D01*
X013211Y001195D01*
X013177Y001232D01*
X013146Y001272D01*
X013118Y001314D01*
X013094Y001358D01*
X013073Y001404D01*
X013056Y001452D01*
X013043Y001500D01*
X013033Y001550D01*
X013027Y001600D01*
X013025Y001650D01*
X013025Y011150D02*
X013027Y011200D01*
X013033Y011250D01*
X013043Y011300D01*
X013056Y011348D01*
X013073Y011396D01*
X013094Y011442D01*
X013118Y011486D01*
X013146Y011528D01*
X013177Y011568D01*
X013211Y011605D01*
X013248Y011640D01*
X013287Y011671D01*
X013328Y011700D01*
X013372Y011725D01*
X013418Y011747D01*
X013465Y011765D01*
X013513Y011779D01*
X013562Y011790D01*
X013612Y011797D01*
X013662Y011800D01*
X013713Y011799D01*
X013763Y011794D01*
X013813Y011785D01*
X013861Y011773D01*
X013909Y011756D01*
X013955Y011736D01*
X014000Y011713D01*
X014043Y011686D01*
X014083Y011656D01*
X014121Y011623D01*
X014156Y011587D01*
X014189Y011548D01*
X014218Y011507D01*
X014244Y011464D01*
X014267Y011419D01*
X014286Y011372D01*
X014301Y011324D01*
X014313Y011275D01*
X014321Y011225D01*
X014325Y011175D01*
X014325Y011125D01*
X014321Y011075D01*
X014313Y011025D01*
X014301Y010976D01*
X014286Y010928D01*
X014267Y010881D01*
X014244Y010836D01*
X014218Y010793D01*
X014189Y010752D01*
X014156Y010713D01*
X014121Y010677D01*
X014083Y010644D01*
X014043Y010614D01*
X014000Y010587D01*
X013955Y010564D01*
X013909Y010544D01*
X013861Y010527D01*
X013813Y010515D01*
X013763Y010506D01*
X013713Y010501D01*
X013662Y010500D01*
X013612Y010503D01*
X013562Y010510D01*
X013513Y010521D01*
X013465Y010535D01*
X013418Y010553D01*
X013372Y010575D01*
X013328Y010600D01*
X013287Y010629D01*
X013248Y010660D01*
X013211Y010695D01*
X013177Y010732D01*
X013146Y010772D01*
X013118Y010814D01*
X013094Y010858D01*
X013073Y010904D01*
X013056Y010952D01*
X013043Y011000D01*
X013033Y011050D01*
X013027Y011100D01*
X013025Y011150D01*
D16*
X003934Y004886D03*
X003934Y004414D03*
X003934Y003886D03*
X003934Y003414D03*
D17*
X003934Y003650D03*
X003934Y004650D03*
D18*
X003747Y002236D02*
X003603Y002236D01*
X003584Y002046D01*
X003520Y002025D01*
X003460Y001994D01*
X003311Y002115D01*
X003210Y002014D01*
X003331Y001865D01*
X003300Y001805D01*
X003279Y001741D01*
X003089Y001722D01*
X003089Y001578D01*
X003279Y001559D01*
X003300Y001495D01*
X003331Y001435D01*
X003210Y001286D01*
X003311Y001185D01*
X003460Y001306D01*
X003520Y001275D01*
X003604Y001479D01*
X003567Y001501D01*
X003535Y001530D01*
X003511Y001566D01*
X003496Y001607D01*
X003490Y001650D01*
X003496Y001694D01*
X003511Y001735D01*
X003536Y001772D01*
X003569Y001801D01*
X003608Y001822D01*
X003651Y001833D01*
X003695Y001833D01*
X003738Y001823D01*
X003777Y001803D01*
X003811Y001775D01*
X003837Y001739D01*
X003853Y001698D01*
X003859Y001654D01*
X003855Y001610D01*
X003840Y001568D01*
X003816Y001531D01*
X004062Y001531D01*
X004071Y001559D02*
X004050Y001495D01*
X004019Y001435D01*
X004140Y001286D01*
X004039Y001185D01*
X003890Y001306D01*
X003830Y001275D01*
X003746Y001479D01*
X003784Y001501D01*
X003816Y001531D01*
X003848Y001589D02*
X004261Y001589D01*
X004261Y001578D02*
X004261Y001722D01*
X004071Y001741D01*
X004050Y001805D01*
X004019Y001865D01*
X004140Y002014D01*
X004039Y002115D01*
X003890Y001994D01*
X003830Y002025D01*
X003766Y002046D01*
X003747Y002236D01*
X003748Y002222D02*
X003602Y002222D01*
X003596Y002164D02*
X003754Y002164D01*
X003760Y002107D02*
X003590Y002107D01*
X003584Y002049D02*
X003766Y002049D01*
X003958Y002049D02*
X004105Y002049D01*
X004123Y001992D02*
X003227Y001992D01*
X003245Y002049D02*
X003392Y002049D01*
X003322Y002107D02*
X003303Y002107D01*
X003274Y001934D02*
X004076Y001934D01*
X004029Y001877D02*
X003321Y001877D01*
X003307Y001819D02*
X003603Y001819D01*
X003529Y001762D02*
X003286Y001762D01*
X003089Y001704D02*
X003500Y001704D01*
X003491Y001646D02*
X003089Y001646D01*
X003089Y001589D02*
X003502Y001589D01*
X003534Y001531D02*
X003288Y001531D01*
X003311Y001474D02*
X003602Y001474D01*
X003578Y001416D02*
X003315Y001416D01*
X003269Y001359D02*
X003554Y001359D01*
X003530Y001301D02*
X003469Y001301D01*
X003454Y001301D02*
X003222Y001301D01*
X003253Y001244D02*
X003384Y001244D01*
X003313Y001186D02*
X003310Y001186D01*
X003796Y001359D02*
X004081Y001359D01*
X004035Y001416D02*
X003772Y001416D01*
X003748Y001474D02*
X004039Y001474D01*
X004071Y001559D02*
X004261Y001578D01*
X004261Y001646D02*
X003859Y001646D01*
X003851Y001704D02*
X004261Y001704D01*
X004064Y001762D02*
X003820Y001762D01*
X003746Y001819D02*
X004043Y001819D01*
X004028Y002107D02*
X004047Y002107D01*
X004128Y001301D02*
X003896Y001301D01*
X003881Y001301D02*
X003820Y001301D01*
X003966Y001244D02*
X004097Y001244D01*
X004040Y001186D02*
X004037Y001186D01*
M02*
